<?xml version="1.0" standalone="no"?>
<!DOCTYPE svg PUBLIC "-//W3C//DTD SVG 20010904//EN"
 "http://www.w3.org/TR/2001/REC-SVG-20010904/DTD/svg10.dtd">
<svg version="1.0" xmlns="http://www.w3.org/2000/svg"
 width="300.000000pt" height="300.000000pt" viewBox="0 0 300.000000 300.000000"
 preserveAspectRatio="xMidYMid meet">
<metadata>
Created by potrace 1.11, written by Peter Selinger 2001-2013
</metadata>
<g transform="translate(0.000000,300.000000) scale(0.100000,-0.100000)"
fill="#000000" stroke="none">
<path d="M1462 2637 l-32 -33 -2 -264 -3 -265 -105 4 c-58 2 -184 4 -280 5
l-175 1 -1 -272 0 -272 270 5 c149 3 277 7 284 9 10 4 12 -11 10 -62 l-3 -67
-110 -2 c-444 -8 -866 -18 -887 -23 -3 0 -36 -52 -72 -115 l-66 -115 57 -105
c49 -92 59 -106 82 -107 14 0 67 -2 116 -4 50 -1 189 -6 310 -10 121 -4 254
-9 295 -10 41 -2 121 -4 178 -6 l102 -2 0 -154 0 -153 -525 0 -525 0 0 -93 0
-93 1010 0 1010 0 -3 96 -2 95 -405 2 c-223 0 -412 2 -421 2 -13 1 -15 22 -16
146 l0 146 181 -6 c100 -2 255 -7 346 -11 91 -3 207 -7 258 -8 l92 -3 0 278 0
278 -152 -4 c-84 -2 -282 -7 -440 -10 l-286 -6 1 63 2 63 105 2 c627 10 889
17 894 24 10 13 126 229 126 234 0 5 -87 149 -129 214 -7 11 -36 15 -108 17
-88 2 -485 13 -653 19 -36 1 -104 3 -152 4 l-87 1 -1 271 0 270 -28 30 -28 30
-32 -34z"/>
<path d="M1655 852 c-9 -10 -5 -112 5 -112 6 0 10 11 10 25 0 34 24 32 50 -6
26 -35 40 -31 17 5 -14 21 -14 25 -2 30 17 6 19 24 6 45 -8 13 -76 23 -86 13z
m73 -34 c3 -14 -3 -18 -27 -18 -25 0 -31 4 -31 21 0 16 5 20 27 17 17 -2 29
-10 31 -20z"/>
<path d="M1797 843 c-2 -5 -5 -32 -6 -60 l-2 -53 46 0 c25 0 45 3 45 8 0 4
-16 7 -36 6 -31 -2 -35 1 -32 20 3 18 8 20 38 18 19 -2 31 0 27 5 -9 8 -14 10
-47 12 -12 1 -20 8 -20 19 0 15 6 17 35 14 21 -3 35 0 35 7 0 12 -76 16 -83 4z"/>
<path d="M1964 839 c-16 -20 -55 -111 -50 -117 3 -2 11 5 18 17 18 29 62 28
76 -1 22 -47 12 15 -11 66 -18 39 -25 46 -33 35z m16 -28 c0 -5 3 -16 6 -25 4
-11 0 -14 -15 -13 -14 1 -20 6 -16 15 3 7 5 18 5 23 0 5 5 9 10 9 6 0 10 -4
10 -9z"/>
<path d="M2060 791 c0 -28 -1 -54 -2 -58 -2 -5 17 -9 42 -10 46 -2 46 1 -2 11
-24 5 -26 9 -23 51 1 25 -2 48 -6 51 -5 3 -9 -18 -9 -45z"/>
<path d="M2140 828 c0 -4 9 -8 20 -8 18 0 20 -7 20 -57 0 -61 14 -65 16 -5 1
20 2 43 3 50 1 6 11 12 23 12 12 0 18 3 15 7 -10 9 -97 11 -97 1z"/>
<path d="M2282 798 c14 -19 24 -43 22 -55 -2 -12 1 -25 6 -28 6 -4 10 5 10 20
0 15 12 42 26 61 15 19 22 34 16 34 -5 0 -18 -12 -27 -27 l-18 -26 -19 26
c-11 15 -24 27 -30 27 -6 0 1 -15 14 -32z"/>
</g>
</svg>
